<?xml version="1.0" encoding="UTF-8" standalone="no"?>
<!DOCTYPE svg PUBLIC "-//W3C//DTD SVG 1.1//EN"
 "http://www.w3.org/Graphics/SVG/1.1/DTD/svg11.dtd">
<!-- Generated by graphviz version 2.38.0 (20140413.2041)
 -->
<!-- Title: %3 Pages: 1 -->
<svg width="589pt" height="131pt"
 viewBox="0.00 0.00 589.25 131.00" xmlns="http://www.w3.org/2000/svg" xmlns:xlink="http://www.w3.org/1999/xlink">
<g id="graph0" class="graph" transform="scale(1 1) rotate(0) translate(4 127)">
<title>%3</title>
<polygon fill="white" stroke="none" points="-4,4 -4,-127 585.247,-127 585.247,4 -4,4"/>
<!-- 1 -->
<g id="node1" class="node"><title>1</title>
<ellipse fill="none" stroke="black" cx="252.247" cy="-105" rx="189.267" ry="18"/>
<text text-anchor="middle" x="252.247" y="-101.3" font-family="Times New Roman,serif" font-size="14.00">{&quot;Attr&quot;:&quot;Temp&quot;, &quot;Gain&quot;:&quot;1.4605530612244897&quot;}</text>
</g>
<!-- 2 -->
<g id="node2" class="node"><title>2</title>
<ellipse fill="none" stroke="black" cx="29.2474" cy="-18" rx="29.4969" ry="18"/>
<text text-anchor="middle" x="29.2474" y="-14.3" font-family="Times New Roman,serif" font-size="14.00">&#45;1.23</text>
</g>
<!-- 1&#45;&gt;2 -->
<g id="edge1" class="edge"><title>1&#45;&gt;2</title>
<path fill="none" stroke="black" d="M118.281,-92.2698C86.0933,-87.0505 57.4675,-79.5951 45.2474,-69 38.5893,-63.2272 34.6781,-54.6827 32.3888,-46.2836"/>
<polygon fill="black" stroke="black" points="35.7782,-45.3904 30.325,-36.3068 28.9233,-46.8085 35.7782,-45.3904"/>
<text text-anchor="middle" x="107.247" y="-57.8" font-family="Times New Roman,serif" font-size="14.00">Temp &#160;in &#160;&#39;[&#45;inf, 24.0)&#39;</text>
</g>
<!-- 3 -->
<g id="node3" class="node"><title>3</title>
<ellipse fill="none" stroke="black" cx="176.247" cy="-18" rx="27" ry="18"/>
<text text-anchor="middle" x="176.247" y="-14.3" font-family="Times New Roman,serif" font-size="14.00">&#45;1.2</text>
</g>
<!-- 1&#45;&gt;3 -->
<g id="edge2" class="edge"><title>1&#45;&gt;3</title>
<path fill="none" stroke="black" d="M197.807,-87.6946C189.686,-82.9361 182.343,-76.8273 177.247,-69 172.9,-62.3218 171.541,-54.0052 171.587,-46.0836"/>
<polygon fill="black" stroke="black" points="175.081,-46.2979 172.323,-36.0682 168.099,-45.7847 175.081,-46.2979"/>
<text text-anchor="middle" x="241.747" y="-57.8" font-family="Times New Roman,serif" font-size="14.00">Temp &#160;in &#160;&#39;[24.0, 25.0)&#39;</text>
</g>
<!-- 4 -->
<g id="node4" class="node"><title>4</title>
<ellipse fill="none" stroke="black" cx="328.247" cy="-18" rx="29.4969" ry="18"/>
<text text-anchor="middle" x="328.247" y="-14.3" font-family="Times New Roman,serif" font-size="14.00">&#45;1.23</text>
</g>
<!-- 1&#45;&gt;4 -->
<g id="edge3" class="edge"><title>1&#45;&gt;4</title>
<path fill="none" stroke="black" d="M284.947,-87.1414C292.636,-82.0746 300.31,-75.9765 306.247,-69 312.016,-62.2224 316.511,-53.6949 319.892,-45.6112"/>
<polygon fill="black" stroke="black" points="323.218,-46.7102 323.474,-36.1184 316.669,-44.2391 323.218,-46.7102"/>
<text text-anchor="middle" x="379.747" y="-57.8" font-family="Times New Roman,serif" font-size="14.00">Temp &#160;in &#160;&#39;[25.0, 26.0)&#39;</text>
</g>
<!-- 5 -->
<g id="node5" class="node"><title>5</title>
<ellipse fill="none" stroke="black" cx="480.247" cy="-18" rx="27" ry="18"/>
<text text-anchor="middle" x="480.247" y="-14.3" font-family="Times New Roman,serif" font-size="14.00">1.2</text>
</g>
<!-- 1&#45;&gt;5 -->
<g id="edge4" class="edge"><title>1&#45;&gt;5</title>
<path fill="none" stroke="black" d="M370.066,-90.8772C403.441,-85.445 434.452,-78.2185 448.247,-69 457.151,-63.0501 464.099,-53.6931 469.211,-44.6749"/>
<polygon fill="black" stroke="black" points="472.438,-46.0529 473.88,-35.5567 466.207,-42.8626 472.438,-46.0529"/>
<text text-anchor="middle" x="521.747" y="-57.8" font-family="Times New Roman,serif" font-size="14.00">Temp &#160;in &#160;&#39;[26.0, inf)&#39;</text>
</g>
</g>
</svg>
