<?xml version="1.0" encoding="UTF-8" standalone="no"?>
<!DOCTYPE svg PUBLIC "-//W3C//DTD SVG 1.1//EN"
 "http://www.w3.org/Graphics/SVG/1.1/DTD/svg11.dtd">
<!-- Generated by graphviz version 2.38.0 (20140413.2041)
 -->
<!-- Title: %3 Pages: 1 -->
<svg width="801pt" height="218pt"
 viewBox="0.00 0.00 801.00 218.00" xmlns="http://www.w3.org/2000/svg" xmlns:xlink="http://www.w3.org/1999/xlink">
<g id="graph0" class="graph" transform="scale(1 1) rotate(0) translate(4 214)">
<title>%3</title>
<polygon fill="white" stroke="none" points="-4,4 -4,-214 797,-214 797,4 -4,4"/>
<!-- 1 -->
<g id="node1" class="node"><title>1</title>
<ellipse fill="none" stroke="black" cx="220" cy="-192" rx="202.264" ry="18"/>
<text text-anchor="middle" x="220" y="-188.3" font-family="Times New Roman,serif" font-size="14.00">{&quot;Attr&quot;:&quot;Outlook&quot;, &quot;Gain&quot;:&quot;0.24053300404228128&quot;}</text>
</g>
<!-- 2 -->
<g id="node2" class="node"><title>2</title>
<ellipse fill="none" stroke="black" cx="27" cy="-105" rx="27" ry="18"/>
<text text-anchor="middle" x="27" y="-101.3" font-family="Times New Roman,serif" font-size="14.00">No</text>
</g>
<!-- 1&#45;&gt;2 -->
<g id="edge1" class="edge"><title>1&#45;&gt;2</title>
<path fill="none" stroke="black" d="M140.441,-175.437C122.978,-170.476 104.952,-164.101 89,-156 74.5149,-148.644 60.267,-137.51 49.0894,-127.613"/>
<polygon fill="black" stroke="black" points="51.2734,-124.868 41.5334,-120.698 46.5474,-130.032 51.2734,-124.868"/>
<text text-anchor="middle" x="152.5" y="-144.8" font-family="Times New Roman,serif" font-size="14.00">Outlook == &#39;Overcast&#39;</text>
</g>
<!-- 3 -->
<g id="node3" class="node"><title>3</title>
<ellipse fill="none" stroke="black" cx="220" cy="-105" rx="147.574" ry="18"/>
<text text-anchor="middle" x="220" y="-101.3" font-family="Times New Roman,serif" font-size="14.00">{&quot;Attr&quot;:&quot;Temperature&quot;, &quot;Gain&quot;:&quot;1.0&quot;}</text>
</g>
<!-- 1&#45;&gt;3 -->
<g id="edge5" class="edge"><title>1&#45;&gt;3</title>
<path fill="none" stroke="black" d="M220,-173.799C220,-162.163 220,-146.548 220,-133.237"/>
<polygon fill="black" stroke="black" points="223.5,-133.175 220,-123.175 216.5,-133.175 223.5,-133.175"/>
<text text-anchor="middle" x="271" y="-144.8" font-family="Times New Roman,serif" font-size="14.00">Outlook == &#39;Rain&#39;</text>
</g>
<!-- 7 -->
<g id="node7" class="node"><title>7</title>
<ellipse fill="none" stroke="black" cx="586" cy="-105" rx="200.665" ry="18"/>
<text text-anchor="middle" x="586" y="-101.3" font-family="Times New Roman,serif" font-size="14.00">{&quot;Attr&quot;:&quot;Humidity&quot;, &quot;Gain&quot;:&quot;0.9182958340544896&quot;}</text>
</g>
<!-- 1&#45;&gt;7 -->
<g id="edge8" class="edge"><title>1&#45;&gt;7</title>
<path fill="none" stroke="black" d="M288.842,-175.012C350.983,-160.58 442.365,-139.358 507.363,-124.263"/>
<polygon fill="black" stroke="black" points="508.208,-127.66 517.157,-121.988 506.624,-120.841 508.208,-127.66"/>
<text text-anchor="middle" x="481" y="-144.8" font-family="Times New Roman,serif" font-size="14.00">Outlook == &#39;Sunny&#39;</text>
</g>
<!-- 4 -->
<g id="node4" class="node"><title>4</title>
<ellipse fill="none" stroke="black" cx="68" cy="-18" rx="27" ry="18"/>
<text text-anchor="middle" x="68" y="-14.3" font-family="Times New Roman,serif" font-size="14.00">No</text>
</g>
<!-- 3&#45;&gt;4 -->
<g id="edge2" class="edge"><title>3&#45;&gt;4</title>
<path fill="none" stroke="black" d="M125.246,-91.094C111.266,-85.941 97.9178,-78.8195 87,-69 80.251,-62.9299 75.8858,-54.2054 73.068,-45.7386"/>
<polygon fill="black" stroke="black" points="76.4425,-44.8095 70.4209,-36.0923 69.6921,-46.662 76.4425,-44.8095"/>
<text text-anchor="middle" x="151.5" y="-57.8" font-family="Times New Roman,serif" font-size="14.00">Temperature == &#39;Cool&#39;</text>
</g>
<!-- 5 -->
<g id="node5" class="node"><title>5</title>
<ellipse fill="none" stroke="black" cx="220" cy="-18" rx="27" ry="18"/>
<text text-anchor="middle" x="220" y="-14.3" font-family="Times New Roman,serif" font-size="14.00">Yes</text>
</g>
<!-- 3&#45;&gt;5 -->
<g id="edge3" class="edge"><title>3&#45;&gt;5</title>
<path fill="none" stroke="black" d="M220,-86.799C220,-75.1626 220,-59.5479 220,-46.2368"/>
<polygon fill="black" stroke="black" points="223.5,-46.1754 220,-36.1754 216.5,-46.1755 223.5,-46.1754"/>
<text text-anchor="middle" x="281" y="-57.8" font-family="Times New Roman,serif" font-size="14.00">Temperature == &#39;Hot&#39;</text>
</g>
<!-- 6 -->
<g id="node6" class="node"><title>6</title>
<ellipse fill="none" stroke="black" cx="365" cy="-18" rx="27" ry="18"/>
<text text-anchor="middle" x="365" y="-14.3" font-family="Times New Roman,serif" font-size="14.00">Yes</text>
</g>
<!-- 3&#45;&gt;6 -->
<g id="edge4" class="edge"><title>3&#45;&gt;6</title>
<path fill="none" stroke="black" d="M305.703,-90.221C319.243,-85.1895 332.287,-78.3346 343,-69 349.989,-62.9099 354.849,-54.1808 358.186,-45.7158"/>
<polygon fill="black" stroke="black" points="361.558,-46.6682 361.44,-36.074 354.926,-44.4295 361.558,-46.6682"/>
<text text-anchor="middle" x="417.5" y="-57.8" font-family="Times New Roman,serif" font-size="14.00">Temperature == &#39;Mild&#39;</text>
</g>
<!-- 8 -->
<g id="node8" class="node"><title>8</title>
<ellipse fill="none" stroke="black" cx="550" cy="-18" rx="27" ry="18"/>
<text text-anchor="middle" x="550" y="-14.3" font-family="Times New Roman,serif" font-size="14.00">No</text>
</g>
<!-- 7&#45;&gt;8 -->
<g id="edge6" class="edge"><title>7&#45;&gt;8</title>
<path fill="none" stroke="black" d="M563.663,-86.8255C558.57,-81.6921 553.829,-75.641 551,-69 548.04,-62.0506 546.976,-54.05 546.862,-46.5152"/>
<polygon fill="black" stroke="black" points="550.366,-46.4528 547.233,-36.3317 543.371,-46.1974 550.366,-46.4528"/>
<text text-anchor="middle" x="605" y="-57.8" font-family="Times New Roman,serif" font-size="14.00">Humidity == &#39;High&#39;</text>
</g>
<!-- 9 -->
<g id="node9" class="node"><title>9</title>
<ellipse fill="none" stroke="black" cx="681" cy="-18" rx="27" ry="18"/>
<text text-anchor="middle" x="681" y="-14.3" font-family="Times New Roman,serif" font-size="14.00">Yes</text>
</g>
<!-- 7&#45;&gt;9 -->
<g id="edge7" class="edge"><title>7&#45;&gt;9</title>
<path fill="none" stroke="black" d="M633.259,-87.4143C642.615,-82.5504 651.766,-76.4732 659,-69 665.284,-62.5083 669.937,-53.9241 673.304,-45.7037"/>
<polygon fill="black" stroke="black" points="676.695,-46.6165 676.795,-36.0221 670.11,-44.2419 676.695,-46.6165"/>
<text text-anchor="middle" x="731.5" y="-57.8" font-family="Times New Roman,serif" font-size="14.00">Humidity == &#39;Normal&#39;</text>
</g>
</g>
</svg>
