<?xml version="1.0" encoding="UTF-8" standalone="no"?>
<!DOCTYPE svg PUBLIC "-//W3C//DTD SVG 1.1//EN"
 "http://www.w3.org/Graphics/SVG/1.1/DTD/svg11.dtd">
<!-- Generated by graphviz version 2.38.0 (20140413.2041)
 -->
<!-- Title: %3 Pages: 1 -->
<svg width="386pt" height="131pt"
 viewBox="0.00 0.00 386.27 131.00" xmlns="http://www.w3.org/2000/svg" xmlns:xlink="http://www.w3.org/1999/xlink">
<g id="graph0" class="graph" transform="scale(1 1) rotate(0) translate(4 127)">
<title>%3</title>
<polygon fill="white" stroke="none" points="-4,4 -4,-127 382.266,-127 382.266,4 -4,4"/>
<!-- 1 -->
<g id="node1" class="node"><title>1</title>
<ellipse fill="none" stroke="black" cx="189.133" cy="-105" rx="189.267" ry="18"/>
<text text-anchor="middle" x="189.133" y="-101.3" font-family="Times New Roman,serif" font-size="14.00">{&quot;Attr&quot;:&quot;Temp&quot;, &quot;Gain&quot;:&quot;0.9852281360342516&quot;}</text>
</g>
<!-- 2 -->
<g id="node2" class="node"><title>2</title>
<ellipse fill="none" stroke="black" cx="116.133" cy="-18" rx="48.9926" ry="18"/>
<text text-anchor="middle" x="116.133" y="-14.3" font-family="Times New Roman,serif" font-size="14.00">Don&#39;t Play</text>
</g>
<!-- 1&#45;&gt;2 -->
<g id="edge1" class="edge"><title>1&#45;&gt;2</title>
<path fill="none" stroke="black" d="M137.192,-87.5486C129.257,-82.7961 122.077,-76.727 117.133,-69 112.839,-62.2875 111.495,-53.9613 111.538,-46.0413"/>
<polygon fill="black" stroke="black" points="115.031,-46.2601 112.262,-36.0335 108.05,-45.7548 115.031,-46.2601"/>
<text text-anchor="middle" x="179.133" y="-57.8" font-family="Times New Roman,serif" font-size="14.00">Temp &#160;in &#160;&#39;[&#45;inf, 25.0)&#39;</text>
</g>
<!-- 3 -->
<g id="node3" class="node"><title>3</title>
<ellipse fill="none" stroke="black" cx="263.133" cy="-18" rx="27" ry="18"/>
<text text-anchor="middle" x="263.133" y="-14.3" font-family="Times New Roman,serif" font-size="14.00">Play</text>
</g>
<!-- 1&#45;&gt;3 -->
<g id="edge2" class="edge"><title>1&#45;&gt;3</title>
<path fill="none" stroke="black" d="M220.341,-87.1446C227.836,-82.044 235.339,-75.9289 241.133,-69 246.842,-62.1726 251.322,-53.6319 254.707,-45.5513"/>
<polygon fill="black" stroke="black" points="258.029,-46.6605 258.301,-36.0691 251.484,-44.1793 258.029,-46.6605"/>
<text text-anchor="middle" x="309.633" y="-57.8" font-family="Times New Roman,serif" font-size="14.00">Temp &#160;in &#160;&#39;[25.0, inf)&#39;</text>
</g>
</g>
</svg>
