<?xml version="1.0" encoding="UTF-8" standalone="no"?>
<!DOCTYPE svg PUBLIC "-//W3C//DTD SVG 1.1//EN"
 "http://www.w3.org/Graphics/SVG/1.1/DTD/svg11.dtd">
<!-- Generated by graphviz version 2.38.0 (20140413.2041)
 -->
<!-- Title: %3 Pages: 1 -->
<svg width="516pt" height="218pt"
 viewBox="0.00 0.00 516.49 218.00" xmlns="http://www.w3.org/2000/svg" xmlns:xlink="http://www.w3.org/1999/xlink">
<g id="graph0" class="graph" transform="scale(1 1) rotate(0) translate(4 214)">
<title>%3</title>
<polygon fill="white" stroke="none" points="-4,4 -4,-214 512.489,-214 512.489,4 -4,4"/>
<!-- 1 -->
<g id="node1" class="node"><title>1</title>
<ellipse fill="none" stroke="black" cx="313.489" cy="-192" rx="181.968" ry="18"/>
<text text-anchor="middle" x="313.489" y="-188.3" font-family="Times New Roman,serif" font-size="14.00">{&quot;Attr&quot;:&quot;Sky&quot;, &quot;Gain&quot;:&quot;0.3219280948873623&quot;}</text>
</g>
<!-- 2 -->
<g id="node2" class="node"><title>2</title>
<ellipse fill="none" stroke="black" cx="123.489" cy="-105" rx="123.478" ry="18"/>
<text text-anchor="middle" x="123.489" y="-101.3" font-family="Times New Roman,serif" font-size="14.00">{&quot;Attr&quot;:&quot;Grass&quot;, &quot;Gain&quot;:&quot;1.0&quot;}</text>
</g>
<!-- 1&#45;&gt;2 -->
<g id="edge3" class="edge"><title>1&#45;&gt;2</title>
<path fill="none" stroke="black" d="M274.273,-174.263C260.98,-168.534 246.063,-162.045 232.489,-156 211.241,-146.538 187.78,-135.812 168.084,-126.727"/>
<polygon fill="black" stroke="black" points="169.289,-123.429 158.743,-122.412 166.354,-129.783 169.289,-123.429"/>
<text text-anchor="middle" x="270.989" y="-144.8" font-family="Times New Roman,serif" font-size="14.00">Sky == &#39;Blue&#39;</text>
</g>
<!-- 5 -->
<g id="node5" class="node"><title>5</title>
<ellipse fill="none" stroke="black" cx="313.489" cy="-105" rx="48.9926" ry="18"/>
<text text-anchor="middle" x="313.489" y="-101.3" font-family="Times New Roman,serif" font-size="14.00">Don&#39;t Play</text>
</g>
<!-- 1&#45;&gt;5 -->
<g id="edge4" class="edge"><title>1&#45;&gt;5</title>
<path fill="none" stroke="black" d="M313.489,-173.799C313.489,-162.163 313.489,-146.548 313.489,-133.237"/>
<polygon fill="black" stroke="black" points="316.989,-133.175 313.489,-123.175 309.989,-133.175 316.989,-133.175"/>
<text text-anchor="middle" x="352.989" y="-144.8" font-family="Times New Roman,serif" font-size="14.00">Sky == &#39;Dark&#39;</text>
</g>
<!-- 6 -->
<g id="node6" class="node"><title>6</title>
<ellipse fill="none" stroke="black" cx="428.489" cy="-105" rx="48.9926" ry="18"/>
<text text-anchor="middle" x="428.489" y="-101.3" font-family="Times New Roman,serif" font-size="14.00">Don&#39;t Play</text>
</g>
<!-- 1&#45;&gt;6 -->
<g id="edge5" class="edge"><title>1&#45;&gt;6</title>
<path fill="none" stroke="black" d="M365.841,-174.587C376.683,-169.692 387.52,-163.558 396.489,-156 404.244,-149.464 410.766,-140.565 415.856,-132.085"/>
<polygon fill="black" stroke="black" points="419.007,-133.62 420.808,-123.18 412.889,-130.218 419.007,-133.62"/>
<text text-anchor="middle" x="459.489" y="-144.8" font-family="Times New Roman,serif" font-size="14.00">Sky == &#39;Gloomy&#39;</text>
</g>
<!-- 3 -->
<g id="node3" class="node"><title>3</title>
<ellipse fill="none" stroke="black" cx="63.489" cy="-18" rx="27" ry="18"/>
<text text-anchor="middle" x="63.489" y="-14.3" font-family="Times New Roman,serif" font-size="14.00">Play</text>
</g>
<!-- 2&#45;&gt;3 -->
<g id="edge1" class="edge"><title>2&#45;&gt;3</title>
<path fill="none" stroke="black" d="M83.4591,-87.8255C75.9132,-82.9168 68.9868,-76.7173 64.489,-69 60.5216,-62.1926 59.2413,-53.9283 59.2417,-46.0955"/>
<polygon fill="black" stroke="black" points="62.7509,-46.0642 59.9038,-35.8591 55.7655,-45.6123 62.7509,-46.0642"/>
<text text-anchor="middle" x="112.989" y="-57.8" font-family="Times New Roman,serif" font-size="14.00">Grass == &#39;Green&#39;</text>
</g>
<!-- 4 -->
<g id="node4" class="node"><title>4</title>
<ellipse fill="none" stroke="black" cx="183.489" cy="-18" rx="48.9926" ry="18"/>
<text text-anchor="middle" x="183.489" y="-14.3" font-family="Times New Roman,serif" font-size="14.00">Don&#39;t Play</text>
</g>
<!-- 2&#45;&gt;4 -->
<g id="edge2" class="edge"><title>2&#45;&gt;4</title>
<path fill="none" stroke="black" d="M144.781,-87.2203C150.706,-81.8431 156.796,-75.5675 161.489,-69 166.585,-61.8688 170.869,-53.3698 174.263,-45.4201"/>
<polygon fill="black" stroke="black" points="177.517,-46.7101 177.956,-36.1244 171.011,-44.1255 177.517,-46.7101"/>
<text text-anchor="middle" x="221.989" y="-57.8" font-family="Times New Roman,serif" font-size="14.00">Grass == &#39;Yellow&#39;</text>
</g>
</g>
</svg>
