<?xml version="1.0" encoding="UTF-8" standalone="no"?>
<!DOCTYPE svg PUBLIC "-//W3C//DTD SVG 1.1//EN"
 "http://www.w3.org/Graphics/SVG/1.1/DTD/svg11.dtd">
<!-- Generated by graphviz version 2.38.0 (20140413.2041)
 -->
<!-- Title: Tree Pages: 1 -->
<svg width="1211pt" height="685pt"
 viewBox="0.00 0.00 1211.00 685.00" xmlns="http://www.w3.org/2000/svg" xmlns:xlink="http://www.w3.org/1999/xlink">
<g id="graph0" class="graph" transform="scale(1 1) rotate(0) translate(4 681)">
<title>Tree</title>
<polygon fill="white" stroke="none" points="-4,4 -4,-681 1207,-681 1207,4 -4,4"/>
<!-- 0 -->
<g id="node1" class="node"><title>0</title>
<polygon fill="none" stroke="black" points="776,-677 670,-677 670,-609 776,-609 776,-677"/>
<text text-anchor="middle" x="723" y="-661.8" font-family="Times New Roman,serif" font-size="14.00">X4 &lt;= 0.5</text>
<text text-anchor="middle" x="723" y="-646.8" font-family="Times New Roman,serif" font-size="14.00">mse = 7520.928</text>
<text text-anchor="middle" x="723" y="-631.8" font-family="Times New Roman,serif" font-size="14.00">samples = 5477</text>
<text text-anchor="middle" x="723" y="-616.8" font-family="Times New Roman,serif" font-size="14.00">value = &#45;23.042</text>
</g>
<!-- 1 -->
<g id="node2" class="node"><title>1</title>
<polygon fill="none" stroke="black" points="655,-573 549,-573 549,-505 655,-505 655,-573"/>
<text text-anchor="middle" x="602" y="-557.8" font-family="Times New Roman,serif" font-size="14.00">X0 &lt;= 0.5</text>
<text text-anchor="middle" x="602" y="-542.8" font-family="Times New Roman,serif" font-size="14.00">mse = 6486.978</text>
<text text-anchor="middle" x="602" y="-527.8" font-family="Times New Roman,serif" font-size="14.00">samples = 3534</text>
<text text-anchor="middle" x="602" y="-512.8" font-family="Times New Roman,serif" font-size="14.00">value = &#45;40.634</text>
</g>
<!-- 0&#45;&gt;1 -->
<g id="edge1" class="edge"><title>0&#45;&gt;1</title>
<path fill="none" stroke="black" d="M683.715,-608.884C672.726,-599.62 660.667,-589.455 649.268,-579.845"/>
<polygon fill="black" stroke="black" points="651.404,-577.069 641.502,-573.299 646.892,-582.421 651.404,-577.069"/>
<text text-anchor="middle" x="643.625" y="-594.509" font-family="Times New Roman,serif" font-size="14.00">True</text>
</g>
<!-- 2 -->
<g id="node23" class="node"><title>2</title>
<polygon fill="none" stroke="black" points="901,-573 795,-573 795,-505 901,-505 901,-573"/>
<text text-anchor="middle" x="848" y="-557.8" font-family="Times New Roman,serif" font-size="14.00">X6 &lt;= 0.5</text>
<text text-anchor="middle" x="848" y="-542.8" font-family="Times New Roman,serif" font-size="14.00">mse = 7814.812</text>
<text text-anchor="middle" x="848" y="-527.8" font-family="Times New Roman,serif" font-size="14.00">samples = 1943</text>
<text text-anchor="middle" x="848" y="-512.8" font-family="Times New Roman,serif" font-size="14.00">value = 8.955</text>
</g>
<!-- 0&#45;&gt;2 -->
<g id="edge22" class="edge"><title>0&#45;&gt;2</title>
<path fill="none" stroke="black" d="M763.584,-608.884C774.936,-599.62 787.394,-589.455 799.17,-579.845"/>
<polygon fill="black" stroke="black" points="801.657,-582.333 807.192,-573.299 797.231,-576.91 801.657,-582.333"/>
<text text-anchor="middle" x="804.672" y="-594.472" font-family="Times New Roman,serif" font-size="14.00">False</text>
</g>
<!-- 3 -->
<g id="node3" class="node"><title>3</title>
<polygon fill="none" stroke="black" points="354,-469 248,-469 248,-401 354,-401 354,-469"/>
<text text-anchor="middle" x="301" y="-453.8" font-family="Times New Roman,serif" font-size="14.00">X8 &lt;= 0.5</text>
<text text-anchor="middle" x="301" y="-438.8" font-family="Times New Roman,serif" font-size="14.00">mse = 5644.453</text>
<text text-anchor="middle" x="301" y="-423.8" font-family="Times New Roman,serif" font-size="14.00">samples = 2207</text>
<text text-anchor="middle" x="301" y="-408.8" font-family="Times New Roman,serif" font-size="14.00">value = &#45;49.705</text>
</g>
<!-- 1&#45;&gt;3 -->
<g id="edge2" class="edge"><title>1&#45;&gt;3</title>
<path fill="none" stroke="black" d="M548.88,-519.999C497.136,-502.465 418.478,-475.81 363.693,-457.245"/>
<polygon fill="black" stroke="black" points="364.689,-453.887 354.094,-453.992 362.442,-460.516 364.689,-453.887"/>
</g>
<!-- 4 -->
<g id="node14" class="node"><title>4</title>
<polygon fill="none" stroke="black" points="655,-469 549,-469 549,-401 655,-401 655,-469"/>
<text text-anchor="middle" x="602" y="-453.8" font-family="Times New Roman,serif" font-size="14.00">X6 &lt;= 0.5</text>
<text text-anchor="middle" x="602" y="-438.8" font-family="Times New Roman,serif" font-size="14.00">mse = 7523.722</text>
<text text-anchor="middle" x="602" y="-423.8" font-family="Times New Roman,serif" font-size="14.00">samples = 1327</text>
<text text-anchor="middle" x="602" y="-408.8" font-family="Times New Roman,serif" font-size="14.00">value = &#45;25.546</text>
</g>
<!-- 1&#45;&gt;4 -->
<g id="edge13" class="edge"><title>1&#45;&gt;4</title>
<path fill="none" stroke="black" d="M602,-504.884C602,-496.778 602,-487.982 602,-479.472"/>
<polygon fill="black" stroke="black" points="605.5,-479.299 602,-469.299 598.5,-479.299 605.5,-479.299"/>
</g>
<!-- 5 -->
<g id="node4" class="node"><title>5</title>
<polygon fill="none" stroke="black" points="230,-357.5 124,-357.5 124,-304.5 230,-304.5 230,-357.5"/>
<text text-anchor="middle" x="177" y="-342.3" font-family="Times New Roman,serif" font-size="14.00">mse = 3530.349</text>
<text text-anchor="middle" x="177" y="-327.3" font-family="Times New Roman,serif" font-size="14.00">samples = 1285</text>
<text text-anchor="middle" x="177" y="-312.3" font-family="Times New Roman,serif" font-size="14.00">value = &#45;70.039</text>
</g>
<!-- 3&#45;&gt;5 -->
<g id="edge3" class="edge"><title>3&#45;&gt;5</title>
<path fill="none" stroke="black" d="M260.741,-400.884C246.301,-389.006 230.06,-375.646 215.751,-363.876"/>
<polygon fill="black" stroke="black" points="217.971,-361.17 208.024,-357.52 213.524,-366.576 217.971,-361.17"/>
</g>
<!-- 6 -->
<g id="node5" class="node"><title>6</title>
<polygon fill="none" stroke="black" points="354,-365 248,-365 248,-297 354,-297 354,-365"/>
<text text-anchor="middle" x="301" y="-349.8" font-family="Times New Roman,serif" font-size="14.00">X2 &lt;= 0.5</text>
<text text-anchor="middle" x="301" y="-334.8" font-family="Times New Roman,serif" font-size="14.00">mse = 7211.581</text>
<text text-anchor="middle" x="301" y="-319.8" font-family="Times New Roman,serif" font-size="14.00">samples = 922</text>
<text text-anchor="middle" x="301" y="-304.8" font-family="Times New Roman,serif" font-size="14.00">value = &#45;21.367</text>
</g>
<!-- 3&#45;&gt;6 -->
<g id="edge4" class="edge"><title>3&#45;&gt;6</title>
<path fill="none" stroke="black" d="M301,-400.884C301,-392.778 301,-383.982 301,-375.472"/>
<polygon fill="black" stroke="black" points="304.5,-375.299 301,-365.299 297.5,-375.299 304.5,-375.299"/>
</g>
<!-- 15 -->
<g id="node6" class="node"><title>15</title>
<polygon fill="none" stroke="black" points="230,-261 124,-261 124,-193 230,-193 230,-261"/>
<text text-anchor="middle" x="177" y="-245.8" font-family="Times New Roman,serif" font-size="14.00">X6 &lt;= 0.5</text>
<text text-anchor="middle" x="177" y="-230.8" font-family="Times New Roman,serif" font-size="14.00">mse = 6340.002</text>
<text text-anchor="middle" x="177" y="-215.8" font-family="Times New Roman,serif" font-size="14.00">samples = 598</text>
<text text-anchor="middle" x="177" y="-200.8" font-family="Times New Roman,serif" font-size="14.00">value = &#45;35.619</text>
</g>
<!-- 6&#45;&gt;15 -->
<g id="edge5" class="edge"><title>6&#45;&gt;15</title>
<path fill="none" stroke="black" d="M260.741,-296.884C249.479,-287.62 237.122,-277.455 225.44,-267.845"/>
<polygon fill="black" stroke="black" points="227.428,-264.949 217.482,-261.299 222.981,-270.355 227.428,-264.949"/>
</g>
<!-- 16 -->
<g id="node11" class="node"><title>16</title>
<polygon fill="none" stroke="black" points="354,-261 248,-261 248,-193 354,-193 354,-261"/>
<text text-anchor="middle" x="301" y="-245.8" font-family="Times New Roman,serif" font-size="14.00">X5 &lt;= 0.5</text>
<text text-anchor="middle" x="301" y="-230.8" font-family="Times New Roman,serif" font-size="14.00">mse = 7753.391</text>
<text text-anchor="middle" x="301" y="-215.8" font-family="Times New Roman,serif" font-size="14.00">samples = 324</text>
<text text-anchor="middle" x="301" y="-200.8" font-family="Times New Roman,serif" font-size="14.00">value = 4.938</text>
</g>
<!-- 6&#45;&gt;16 -->
<g id="edge10" class="edge"><title>6&#45;&gt;16</title>
<path fill="none" stroke="black" d="M301,-296.884C301,-288.778 301,-279.982 301,-271.472"/>
<polygon fill="black" stroke="black" points="304.5,-271.299 301,-261.299 297.5,-271.299 304.5,-271.299"/>
</g>
<!-- 19 -->
<g id="node7" class="node"><title>19</title>
<polygon fill="none" stroke="black" points="106,-149.5 0,-149.5 0,-96.5 106,-96.5 106,-149.5"/>
<text text-anchor="middle" x="53" y="-134.3" font-family="Times New Roman,serif" font-size="14.00">mse = 3814.061</text>
<text text-anchor="middle" x="53" y="-119.3" font-family="Times New Roman,serif" font-size="14.00">samples = 359</text>
<text text-anchor="middle" x="53" y="-104.3" font-family="Times New Roman,serif" font-size="14.00">value = &#45;63.788</text>
</g>
<!-- 15&#45;&gt;19 -->
<g id="edge6" class="edge"><title>15&#45;&gt;19</title>
<path fill="none" stroke="black" d="M136.741,-192.884C122.301,-181.006 106.06,-167.646 91.7512,-155.876"/>
<polygon fill="black" stroke="black" points="93.9706,-153.17 84.0242,-149.52 89.5237,-158.576 93.9706,-153.17"/>
</g>
<!-- 20 -->
<g id="node8" class="node"><title>20</title>
<polygon fill="none" stroke="black" points="230,-157 124,-157 124,-89 230,-89 230,-157"/>
<text text-anchor="middle" x="177" y="-141.8" font-family="Times New Roman,serif" font-size="14.00">X7 &lt;= 0.5</text>
<text text-anchor="middle" x="177" y="-126.8" font-family="Times New Roman,serif" font-size="14.00">mse = 7151.836</text>
<text text-anchor="middle" x="177" y="-111.8" font-family="Times New Roman,serif" font-size="14.00">samples = 239</text>
<text text-anchor="middle" x="177" y="-96.8" font-family="Times New Roman,serif" font-size="14.00">value = 6.695</text>
</g>
<!-- 15&#45;&gt;20 -->
<g id="edge7" class="edge"><title>15&#45;&gt;20</title>
<path fill="none" stroke="black" d="M177,-192.884C177,-184.778 177,-175.982 177,-167.472"/>
<polygon fill="black" stroke="black" points="180.5,-167.299 177,-157.299 173.5,-167.299 180.5,-167.299"/>
</g>
<!-- 21 -->
<g id="node9" class="node"><title>21</title>
<polygon fill="none" stroke="black" points="171,-53 65,-53 65,-0 171,-0 171,-53"/>
<text text-anchor="middle" x="118" y="-37.8" font-family="Times New Roman,serif" font-size="14.00">mse = 4940.122</text>
<text text-anchor="middle" x="118" y="-22.8" font-family="Times New Roman,serif" font-size="14.00">samples = 168</text>
<text text-anchor="middle" x="118" y="-7.8" font-family="Times New Roman,serif" font-size="14.00">value = &#45;32.738</text>
</g>
<!-- 20&#45;&gt;21 -->
<g id="edge8" class="edge"><title>20&#45;&gt;21</title>
<path fill="none" stroke="black" d="M156.365,-88.9485C150.882,-80.1664 144.948,-70.6629 139.424,-61.815"/>
<polygon fill="black" stroke="black" points="142.333,-59.8656 134.068,-53.2367 136.396,-63.5728 142.333,-59.8656"/>
</g>
<!-- 22 -->
<g id="node10" class="node"><title>22</title>
<polygon fill="none" stroke="black" points="281,-53 189,-53 189,-0 281,-0 281,-53"/>
<text text-anchor="middle" x="235" y="-37.8" font-family="Times New Roman,serif" font-size="14.00">mse = 0.0</text>
<text text-anchor="middle" x="235" y="-22.8" font-family="Times New Roman,serif" font-size="14.00">samples = 71</text>
<text text-anchor="middle" x="235" y="-7.8" font-family="Times New Roman,serif" font-size="14.00">value = 100.0</text>
</g>
<!-- 20&#45;&gt;22 -->
<g id="edge9" class="edge"><title>20&#45;&gt;22</title>
<path fill="none" stroke="black" d="M197.286,-88.9485C202.676,-80.1664 208.508,-70.6629 213.939,-61.815"/>
<polygon fill="black" stroke="black" points="216.956,-63.5903 219.204,-53.2367 210.99,-59.9287 216.956,-63.5903"/>
</g>
<!-- 17 -->
<g id="node12" class="node"><title>17</title>
<polygon fill="none" stroke="black" points="354,-149.5 248,-149.5 248,-96.5 354,-96.5 354,-149.5"/>
<text text-anchor="middle" x="301" y="-134.3" font-family="Times New Roman,serif" font-size="14.00">mse = 6153.954</text>
<text text-anchor="middle" x="301" y="-119.3" font-family="Times New Roman,serif" font-size="14.00">samples = 239</text>
<text text-anchor="middle" x="301" y="-104.3" font-family="Times New Roman,serif" font-size="14.00">value = &#45;28.87</text>
</g>
<!-- 16&#45;&gt;17 -->
<g id="edge11" class="edge"><title>16&#45;&gt;17</title>
<path fill="none" stroke="black" d="M301,-192.884C301,-182.326 301,-170.597 301,-159.854"/>
<polygon fill="black" stroke="black" points="304.5,-159.52 301,-149.52 297.5,-159.52 304.5,-159.52"/>
</g>
<!-- 18 -->
<g id="node13" class="node"><title>18</title>
<polygon fill="none" stroke="black" points="464,-149.5 372,-149.5 372,-96.5 464,-96.5 464,-149.5"/>
<text text-anchor="middle" x="418" y="-134.3" font-family="Times New Roman,serif" font-size="14.00">mse = 0.0</text>
<text text-anchor="middle" x="418" y="-119.3" font-family="Times New Roman,serif" font-size="14.00">samples = 85</text>
<text text-anchor="middle" x="418" y="-104.3" font-family="Times New Roman,serif" font-size="14.00">value = 100.0</text>
</g>
<!-- 16&#45;&gt;18 -->
<g id="edge12" class="edge"><title>16&#45;&gt;18</title>
<path fill="none" stroke="black" d="M338.987,-192.884C352.485,-181.116 367.651,-167.894 381.061,-156.203"/>
<polygon fill="black" stroke="black" points="383.489,-158.73 388.727,-149.52 378.889,-153.453 383.489,-158.73"/>
</g>
<!-- 7 -->
<g id="node15" class="node"><title>7</title>
<polygon fill="none" stroke="black" points="596,-365 490,-365 490,-297 596,-297 596,-365"/>
<text text-anchor="middle" x="543" y="-349.8" font-family="Times New Roman,serif" font-size="14.00">X2 &lt;= 0.5</text>
<text text-anchor="middle" x="543" y="-334.8" font-family="Times New Roman,serif" font-size="14.00">mse = 6735.965</text>
<text text-anchor="middle" x="543" y="-319.8" font-family="Times New Roman,serif" font-size="14.00">samples = 909</text>
<text text-anchor="middle" x="543" y="-304.8" font-family="Times New Roman,serif" font-size="14.00">value = &#45;38.064</text>
</g>
<!-- 4&#45;&gt;7 -->
<g id="edge14" class="edge"><title>4&#45;&gt;7</title>
<path fill="none" stroke="black" d="M582.844,-400.884C577.898,-392.332 572.508,-383.013 567.336,-374.072"/>
<polygon fill="black" stroke="black" points="570.298,-372.203 562.261,-365.299 564.239,-375.708 570.298,-372.203"/>
</g>
<!-- 8 -->
<g id="node20" class="node"><title>8</title>
<polygon fill="none" stroke="black" points="714.5,-365 615.5,-365 615.5,-297 714.5,-297 714.5,-365"/>
<text text-anchor="middle" x="665" y="-349.8" font-family="Times New Roman,serif" font-size="14.00">X3 &lt;= 0.5</text>
<text text-anchor="middle" x="665" y="-334.8" font-family="Times New Roman,serif" font-size="14.00">mse = 8155.09</text>
<text text-anchor="middle" x="665" y="-319.8" font-family="Times New Roman,serif" font-size="14.00">samples = 418</text>
<text text-anchor="middle" x="665" y="-304.8" font-family="Times New Roman,serif" font-size="14.00">value = 1.675</text>
</g>
<!-- 4&#45;&gt;8 -->
<g id="edge19" class="edge"><title>4&#45;&gt;8</title>
<path fill="none" stroke="black" d="M622.454,-400.884C627.736,-392.332 633.492,-383.013 639.014,-374.072"/>
<polygon fill="black" stroke="black" points="642.156,-375.647 644.433,-365.299 636.2,-371.968 642.156,-375.647"/>
</g>
<!-- 11 -->
<g id="node16" class="node"><title>11</title>
<polygon fill="none" stroke="black" points="471.5,-253.5 372.5,-253.5 372.5,-200.5 471.5,-200.5 471.5,-253.5"/>
<text text-anchor="middle" x="422" y="-238.3" font-family="Times New Roman,serif" font-size="14.00">mse = 4581.08</text>
<text text-anchor="middle" x="422" y="-223.3" font-family="Times New Roman,serif" font-size="14.00">samples = 585</text>
<text text-anchor="middle" x="422" y="-208.3" font-family="Times New Roman,serif" font-size="14.00">value = &#45;61.88</text>
</g>
<!-- 7&#45;&gt;11 -->
<g id="edge15" class="edge"><title>7&#45;&gt;11</title>
<path fill="none" stroke="black" d="M503.715,-296.884C489.755,-285.116 474.07,-271.894 460.202,-260.203"/>
<polygon fill="black" stroke="black" points="462.175,-257.289 452.274,-253.52 457.664,-262.641 462.175,-257.289"/>
</g>
<!-- 12 -->
<g id="node17" class="node"><title>12</title>
<polygon fill="none" stroke="black" points="596,-261 490,-261 490,-193 596,-193 596,-261"/>
<text text-anchor="middle" x="543" y="-245.8" font-family="Times New Roman,serif" font-size="14.00">X1 &lt;= 0.5</text>
<text text-anchor="middle" x="543" y="-230.8" font-family="Times New Roman,serif" font-size="14.00">mse = 7753.391</text>
<text text-anchor="middle" x="543" y="-215.8" font-family="Times New Roman,serif" font-size="14.00">samples = 324</text>
<text text-anchor="middle" x="543" y="-200.8" font-family="Times New Roman,serif" font-size="14.00">value = 4.938</text>
</g>
<!-- 7&#45;&gt;12 -->
<g id="edge16" class="edge"><title>7&#45;&gt;12</title>
<path fill="none" stroke="black" d="M543,-296.884C543,-288.778 543,-279.982 543,-271.472"/>
<polygon fill="black" stroke="black" points="546.5,-271.299 543,-261.299 539.5,-271.299 546.5,-271.299"/>
</g>
<!-- 13 -->
<g id="node18" class="node"><title>13</title>
<polygon fill="none" stroke="black" points="592,-149.5 486,-149.5 486,-96.5 592,-96.5 592,-149.5"/>
<text text-anchor="middle" x="539" y="-134.3" font-family="Times New Roman,serif" font-size="14.00">mse = 6153.954</text>
<text text-anchor="middle" x="539" y="-119.3" font-family="Times New Roman,serif" font-size="14.00">samples = 239</text>
<text text-anchor="middle" x="539" y="-104.3" font-family="Times New Roman,serif" font-size="14.00">value = &#45;28.87</text>
</g>
<!-- 12&#45;&gt;13 -->
<g id="edge17" class="edge"><title>12&#45;&gt;13</title>
<path fill="none" stroke="black" d="M541.701,-192.884C541.283,-182.216 540.818,-170.352 540.393,-159.519"/>
<polygon fill="black" stroke="black" points="543.89,-159.375 540.001,-149.52 536.895,-159.649 543.89,-159.375"/>
</g>
<!-- 14 -->
<g id="node19" class="node"><title>14</title>
<polygon fill="none" stroke="black" points="702,-149.5 610,-149.5 610,-96.5 702,-96.5 702,-149.5"/>
<text text-anchor="middle" x="656" y="-134.3" font-family="Times New Roman,serif" font-size="14.00">mse = 0.0</text>
<text text-anchor="middle" x="656" y="-119.3" font-family="Times New Roman,serif" font-size="14.00">samples = 85</text>
<text text-anchor="middle" x="656" y="-104.3" font-family="Times New Roman,serif" font-size="14.00">value = 100.0</text>
</g>
<!-- 12&#45;&gt;14 -->
<g id="edge18" class="edge"><title>12&#45;&gt;14</title>
<path fill="none" stroke="black" d="M579.688,-192.884C592.603,-181.226 607.099,-168.141 619.96,-156.532"/>
<polygon fill="black" stroke="black" points="622.65,-158.819 627.728,-149.52 617.96,-153.622 622.65,-158.819"/>
</g>
<!-- 9 -->
<g id="node21" class="node"><title>9</title>
<polygon fill="none" stroke="black" points="720,-253.5 614,-253.5 614,-200.5 720,-200.5 720,-253.5"/>
<text text-anchor="middle" x="667" y="-238.3" font-family="Times New Roman,serif" font-size="14.00">mse = 6754.454</text>
<text text-anchor="middle" x="667" y="-223.3" font-family="Times New Roman,serif" font-size="14.00">samples = 319</text>
<text text-anchor="middle" x="667" y="-208.3" font-family="Times New Roman,serif" font-size="14.00">value = &#45;28.84</text>
</g>
<!-- 8&#45;&gt;9 -->
<g id="edge20" class="edge"><title>8&#45;&gt;9</title>
<path fill="none" stroke="black" d="M665.649,-296.884C665.859,-286.216 666.091,-274.352 666.304,-263.519"/>
<polygon fill="black" stroke="black" points="669.803,-263.587 666.5,-253.52 662.804,-263.449 669.803,-263.587"/>
</g>
<!-- 10 -->
<g id="node22" class="node"><title>10</title>
<polygon fill="none" stroke="black" points="830,-253.5 738,-253.5 738,-200.5 830,-200.5 830,-253.5"/>
<text text-anchor="middle" x="784" y="-238.3" font-family="Times New Roman,serif" font-size="14.00">mse = 0.0</text>
<text text-anchor="middle" x="784" y="-223.3" font-family="Times New Roman,serif" font-size="14.00">samples = 99</text>
<text text-anchor="middle" x="784" y="-208.3" font-family="Times New Roman,serif" font-size="14.00">value = 100.0</text>
</g>
<!-- 8&#45;&gt;10 -->
<g id="edge21" class="edge"><title>8&#45;&gt;10</title>
<path fill="none" stroke="black" d="M703.636,-296.884C717.365,-285.116 732.791,-271.894 746.429,-260.203"/>
<polygon fill="black" stroke="black" points="748.912,-262.685 754.227,-253.52 744.356,-257.37 748.912,-262.685"/>
</g>
<!-- 23 -->
<g id="node24" class="node"><title>23</title>
<polygon fill="none" stroke="black" points="901,-469 795,-469 795,-401 901,-401 901,-469"/>
<text text-anchor="middle" x="848" y="-453.8" font-family="Times New Roman,serif" font-size="14.00">X8 &lt;= 0.5</text>
<text text-anchor="middle" x="848" y="-438.8" font-family="Times New Roman,serif" font-size="14.00">mse = 7783.465</text>
<text text-anchor="middle" x="848" y="-423.8" font-family="Times New Roman,serif" font-size="14.00">samples = 1372</text>
<text text-anchor="middle" x="848" y="-408.8" font-family="Times New Roman,serif" font-size="14.00">value = 2.843</text>
</g>
<!-- 2&#45;&gt;23 -->
<g id="edge23" class="edge"><title>2&#45;&gt;23</title>
<path fill="none" stroke="black" d="M848,-504.884C848,-496.778 848,-487.982 848,-479.472"/>
<polygon fill="black" stroke="black" points="851.5,-479.299 848,-469.299 844.5,-479.299 851.5,-479.299"/>
</g>
<!-- 24 -->
<g id="node27" class="node"><title>24</title>
<polygon fill="none" stroke="black" points="1087,-469 981,-469 981,-401 1087,-401 1087,-469"/>
<text text-anchor="middle" x="1034" y="-453.8" font-family="Times New Roman,serif" font-size="14.00">X2 &lt;= 0.5</text>
<text text-anchor="middle" x="1034" y="-438.8" font-family="Times New Roman,serif" font-size="14.00">mse = 7584.629</text>
<text text-anchor="middle" x="1034" y="-423.8" font-family="Times New Roman,serif" font-size="14.00">samples = 571</text>
<text text-anchor="middle" x="1034" y="-408.8" font-family="Times New Roman,serif" font-size="14.00">value = 23.643</text>
</g>
<!-- 2&#45;&gt;24 -->
<g id="edge26" class="edge"><title>2&#45;&gt;24</title>
<path fill="none" stroke="black" d="M901.3,-508.771C923.287,-496.714 948.917,-482.658 971.759,-470.132"/>
<polygon fill="black" stroke="black" points="973.607,-473.111 980.692,-465.233 970.241,-466.973 973.607,-473.111"/>
</g>
<!-- 27 -->
<g id="node25" class="node"><title>27</title>
<polygon fill="none" stroke="black" points="839,-357.5 733,-357.5 733,-304.5 839,-304.5 839,-357.5"/>
<text text-anchor="middle" x="786" y="-342.3" font-family="Times New Roman,serif" font-size="14.00">mse = 7585.917</text>
<text text-anchor="middle" x="786" y="-327.3" font-family="Times New Roman,serif" font-size="14.00">samples = 928</text>
<text text-anchor="middle" x="786" y="-312.3" font-family="Times New Roman,serif" font-size="14.00">value = &#45;5.711</text>
</g>
<!-- 23&#45;&gt;27 -->
<g id="edge24" class="edge"><title>23&#45;&gt;27</title>
<path fill="none" stroke="black" d="M827.87,-400.884C821.119,-389.776 813.579,-377.372 806.778,-366.184"/>
<polygon fill="black" stroke="black" points="809.697,-364.247 801.512,-357.52 803.715,-367.883 809.697,-364.247"/>
</g>
<!-- 28 -->
<g id="node26" class="node"><title>28</title>
<polygon fill="none" stroke="black" points="963,-357.5 857,-357.5 857,-304.5 963,-304.5 963,-357.5"/>
<text text-anchor="middle" x="910" y="-342.3" font-family="Times New Roman,serif" font-size="14.00">mse = 7723.805</text>
<text text-anchor="middle" x="910" y="-327.3" font-family="Times New Roman,serif" font-size="14.00">samples = 444</text>
<text text-anchor="middle" x="910" y="-312.3" font-family="Times New Roman,serif" font-size="14.00">value = 20.721</text>
</g>
<!-- 23&#45;&gt;28 -->
<g id="edge25" class="edge"><title>23&#45;&gt;28</title>
<path fill="none" stroke="black" d="M868.13,-400.884C874.881,-389.776 882.421,-377.372 889.222,-366.184"/>
<polygon fill="black" stroke="black" points="892.285,-367.883 894.488,-357.52 886.303,-364.247 892.285,-367.883"/>
</g>
<!-- 25 -->
<g id="node28" class="node"><title>25</title>
<polygon fill="none" stroke="black" points="1087,-357.5 981,-357.5 981,-304.5 1087,-304.5 1087,-357.5"/>
<text text-anchor="middle" x="1034" y="-342.3" font-family="Times New Roman,serif" font-size="14.00">mse = 7539.257</text>
<text text-anchor="middle" x="1034" y="-327.3" font-family="Times New Roman,serif" font-size="14.00">samples = 431</text>
<text text-anchor="middle" x="1034" y="-312.3" font-family="Times New Roman,serif" font-size="14.00">value = &#45;1.16</text>
</g>
<!-- 24&#45;&gt;25 -->
<g id="edge27" class="edge"><title>24&#45;&gt;25</title>
<path fill="none" stroke="black" d="M1034,-400.884C1034,-390.326 1034,-378.597 1034,-367.854"/>
<polygon fill="black" stroke="black" points="1037.5,-367.52 1034,-357.52 1030.5,-367.52 1037.5,-367.52"/>
</g>
<!-- 26 -->
<g id="node29" class="node"><title>26</title>
<polygon fill="none" stroke="black" points="1203,-357.5 1105,-357.5 1105,-304.5 1203,-304.5 1203,-357.5"/>
<text text-anchor="middle" x="1154" y="-342.3" font-family="Times New Roman,serif" font-size="14.00">mse = 0.0</text>
<text text-anchor="middle" x="1154" y="-327.3" font-family="Times New Roman,serif" font-size="14.00">samples = 140</text>
<text text-anchor="middle" x="1154" y="-312.3" font-family="Times New Roman,serif" font-size="14.00">value = 100.0</text>
</g>
<!-- 24&#45;&gt;26 -->
<g id="edge28" class="edge"><title>24&#45;&gt;26</title>
<path fill="none" stroke="black" d="M1072.96,-400.884C1086.8,-389.116 1102.36,-375.894 1116.11,-364.203"/>
<polygon fill="black" stroke="black" points="1118.62,-366.663 1123.98,-357.52 1114.09,-361.33 1118.62,-366.663"/>
</g>
</g>
</svg>
